<svg xmlns="http://www.w3.org/2000/svg" version="1.1" xmlns:xlink="http://www.w3.org/1999/xlink" viewBox="0 0 200 200"><rect width="200" height="200" fill="url('#gradient')"></rect><defs><linearGradient id="gradient" gradientTransform="rotate(125 0.5 0.5)"><stop offset="0%" stop-color="#0c2fe8"></stop><stop offset="100%" stop-color="#4243e3"></stop></linearGradient></defs><g><g fill="#f7fbff" transform="matrix(5.536895674300254,0,0,5.536895674300254,10.576789325278526,139.3715844991553)" stroke="#0e5278" stroke-width="0.2"><path d="M12.71-7.60L12.71-1.76Q11.92-0.88 10.40-0.34Q8.88 0.20 7.06 0.20L7.06 0.20Q4.27 0.20 2.60-1.51Q0.93-3.22 0.81-6.27L0.81-6.27L0.80-7.50Q0.80-9.60 1.54-11.17Q2.29-12.73 3.67-13.58Q5.05-14.42 6.87-14.42L6.87-14.42Q9.52-14.42 10.99-13.21Q12.46-11.99 12.71-9.58L12.71-9.58L9.40-9.58Q9.23-10.77 8.64-11.28Q8.06-11.79 6.98-11.79L6.98-11.79Q5.69-11.79 4.99-10.69Q4.29-9.60 4.28-7.57L4.28-7.57L4.28-6.71Q4.28-4.58 5.00-3.51Q5.73-2.44 7.29-2.44L7.29-2.44Q8.63-2.44 9.29-3.04L9.29-3.04L9.29-5.24L6.90-5.24L6.90-7.60L12.71-7.60ZM18.36-14.22L18.36 0L14.94 0L14.94-14.22L18.36-14.22ZM28.08-3.78L28.08-3.78Q28.08-4.53 27.54-4.95Q27.01-5.37 25.67-5.82Q24.34-6.27 23.49-6.69L23.49-6.69Q20.72-8.05 20.72-10.42L20.72-10.42Q20.72-11.60 21.41-12.50Q22.10-13.41 23.36-13.91Q24.62-14.41 26.19-14.41L26.19-14.41Q27.72-14.41 28.94-13.87Q30.16-13.32 30.83-12.31Q31.50-11.30 31.50-10L31.50-10L28.09-10Q28.09-10.87 27.55-11.35Q27.02-11.83 26.11-11.83L26.11-11.83Q25.20-11.83 24.66-11.42Q24.13-11.02 24.13-10.39L24.13-10.39Q24.13-9.84 24.72-9.40Q25.30-8.96 26.78-8.48Q28.25-8.01 29.20-7.46L29.20-7.46Q31.50-6.13 31.50-3.80L31.50-3.80Q31.50-1.93 30.10-0.87Q28.69 0.20 26.24 0.20L26.24 0.20Q24.51 0.20 23.11-0.42Q21.71-1.04 21.00-2.12Q20.29-3.20 20.29-4.61L20.29-4.61L23.73-4.61Q23.73-3.47 24.32-2.92Q24.91-2.38 26.24-2.38L26.24-2.38Q27.09-2.38 27.58-2.75Q28.08-3.12 28.08-3.78Z"></path></g></g></svg>